<svg width="469" height="172" viewBox="0 0 469 172" fill="none" xmlns="http://www.w3.org/2000/svg">
<path fill-rule="evenodd" clip-rule="evenodd" d="M3.7964e-06 86.8515L46.1918 86.8515L46.1918 172L109.162 86.8515L172 86.8515L85.9998 -3.75917e-06L3.7964e-06 86.8515Z" fill="#A1AFFF"/>
<path d="M74.912 149.96H98.624V161H59.6479V150.152L82.8799 118.856H59.7439V107.816H98.3359V118.664L74.912 149.96Z" fill="white"/>
<path d="M140.998 161L122.95 138.344V161H109.51V89.96H122.95V130.376L140.806 107.816H158.278L134.854 134.504L158.47 161H140.998Z" fill="white"/>
<path d="M187.286 104.84V121.64H209.846V132.296H187.286V150.056H212.726V161H173.846V93.896H212.726V104.84H187.286Z" fill="white"/>
<path d="M245.772 161.864C241.42 161.864 237.516 161.096 234.06 159.56C230.604 157.96 227.852 155.816 225.804 153.128C223.82 150.44 222.732 147.464 222.54 144.2H236.076C236.332 146.248 237.324 147.944 239.052 149.288C240.844 150.632 243.052 151.304 245.676 151.304C248.236 151.304 250.22 150.792 251.628 149.768C253.1 148.744 253.836 147.432 253.836 145.832C253.836 144.104 252.94 142.824 251.148 141.992C249.42 141.096 246.636 140.136 242.796 139.112C238.828 138.152 235.564 137.16 233.004 136.136C230.508 135.112 228.332 133.544 226.476 131.432C224.684 129.32 223.788 126.472 223.788 122.888C223.788 119.944 224.62 117.256 226.284 114.824C228.012 112.392 230.444 110.472 233.58 109.064C236.78 107.656 240.524 106.952 244.812 106.952C251.148 106.952 256.204 108.552 259.98 111.752C263.756 114.888 265.836 119.144 266.22 124.52H253.356C253.164 122.408 252.268 120.744 250.668 119.528C249.132 118.248 247.052 117.608 244.428 117.608C241.996 117.608 240.108 118.056 238.764 118.952C237.484 119.848 236.844 121.096 236.844 122.696C236.844 124.488 237.74 125.864 239.532 126.824C241.324 127.72 244.108 128.648 247.884 129.608C251.724 130.568 254.892 131.56 257.388 132.584C259.884 133.608 262.028 135.208 263.82 137.384C265.676 139.496 266.636 142.312 266.7 145.832C266.7 148.904 265.836 151.656 264.108 154.088C262.444 156.52 260.012 158.44 256.812 159.848C253.676 161.192 249.996 161.864 245.772 161.864Z" fill="white"/>
<path d="M293.86 118.856V144.584C293.86 146.376 294.276 147.688 295.108 148.52C296.004 149.288 297.476 149.672 299.524 149.672H305.764V161H297.316C285.988 161 280.324 155.496 280.324 144.488V118.856H273.988V107.816H280.324V94.664H293.86V107.816H305.764V118.856H293.86Z" fill="white"/>
<path d="M312.455 134.216C312.455 128.84 313.511 124.072 315.623 119.912C317.799 115.752 320.711 112.552 324.359 110.312C328.071 108.072 332.199 106.952 336.743 106.952C340.711 106.952 344.167 107.752 347.111 109.352C350.119 110.952 352.519 112.968 354.311 115.4V107.816H367.847V161H354.311V153.224C352.583 155.72 350.183 157.8 347.111 159.464C344.103 161.064 340.615 161.864 336.647 161.864C332.167 161.864 328.071 160.712 324.359 158.408C320.711 156.104 317.799 152.872 315.623 148.712C313.511 144.488 312.455 139.656 312.455 134.216ZM354.311 134.408C354.311 131.144 353.671 128.36 352.391 126.056C351.111 123.688 349.383 121.896 347.207 120.68C345.031 119.4 342.695 118.76 340.199 118.76C337.703 118.76 335.399 119.368 333.287 120.584C331.175 121.8 329.447 123.592 328.103 125.96C326.823 128.264 326.183 131.016 326.183 134.216C326.183 137.416 326.823 140.232 328.103 142.664C329.447 145.032 331.175 146.856 333.287 148.136C335.463 149.416 337.767 150.056 340.199 150.056C342.695 150.056 345.031 149.448 347.207 148.232C349.383 146.952 351.111 145.16 352.391 142.856C353.671 140.488 354.311 137.672 354.311 134.408Z" fill="white"/>
<path d="M397.101 118.856V144.584C397.101 146.376 397.517 147.688 398.349 148.52C399.245 149.288 400.717 149.672 402.765 149.672H409.005V161H400.557C389.229 161 383.565 155.496 383.565 144.488V118.856H377.229V107.816H383.565V94.664H397.101V107.816H409.005V118.856H397.101Z" fill="white"/>
<path d="M468.592 133.256C468.592 135.176 468.464 136.904 468.208 138.44H429.328C429.648 142.28 430.992 145.288 433.36 147.464C435.728 149.64 438.64 150.728 442.096 150.728C447.088 150.728 450.64 148.584 452.752 144.296H467.248C465.712 149.416 462.768 153.64 458.416 156.968C454.064 160.232 448.72 161.864 442.384 161.864C437.264 161.864 432.656 160.744 428.56 158.504C424.528 156.2 421.36 152.968 419.056 148.808C416.816 144.648 415.696 139.848 415.696 134.408C415.696 128.904 416.816 124.072 419.056 119.912C421.296 115.752 424.432 112.552 428.464 110.312C432.496 108.072 437.136 106.952 442.384 106.952C447.44 106.952 451.952 108.04 455.92 110.216C459.952 112.392 463.056 115.496 465.232 119.528C467.472 123.496 468.592 128.072 468.592 133.256ZM454.672 129.416C454.608 125.96 453.36 123.208 450.928 121.16C448.496 119.048 445.52 117.992 442 117.992C438.672 117.992 435.856 119.016 433.552 121.064C431.312 123.048 429.936 125.832 429.424 129.416H454.672Z" fill="white"/>
</svg>
